<?xml version="1.0" encoding="UTF-8" standalone="no"?>
<!-- Created with Inkscape (http://www.inkscape.org/) -->

<svg xmlns:dc="http://purl.org/dc/elements/1.1/" xmlns:cc="http://creativecommons.org/ns#" xmlns:rdf="http://www.w3.org/1999/02/22-rdf-syntax-ns#" xmlns:svg="http://www.w3.org/2000/svg" xmlns="http://www.w3.org/2000/svg" xmlns:sodipodi="http://sodipodi.sourceforge.net/DTD/sodipodi-0.dtd" xmlns:inkscape="http://www.inkscape.org/namespaces/inkscape" width="744.09448" height="120" id="svg11752" version="1.1" inkscape:version="0.47 r22583" sodipodi:docname="svmerge_default_splicing_pattern.svg">
  <defs id="defs11754">
    <inkscape:perspective sodipodi:type="inkscape:persp3d" inkscape:vp_x="0 : 526.18109 : 1" inkscape:vp_y="0 : 1000 : 0" inkscape:vp_z="744.09448 : 526.18109 : 1" inkscape:persp3d-origin="372.04724 : 350.78739 : 1" id="perspective11760" />
    <inkscape:perspective id="perspective11770" inkscape:persp3d-origin="0.5 : 0.33333333 : 1" inkscape:vp_z="1 : 0.5 : 1" inkscape:vp_y="0 : 1000 : 0" inkscape:vp_x="0 : 0.5 : 1" sodipodi:type="inkscape:persp3d" />
    <inkscape:perspective id="perspective11992" inkscape:persp3d-origin="0.5 : 0.33333333 : 1" inkscape:vp_z="1 : 0.5 : 1" inkscape:vp_y="0 : 1000 : 0" inkscape:vp_x="0 : 0.5 : 1" sodipodi:type="inkscape:persp3d" />
  </defs>
  <sodipodi:namedview id="base" pagecolor="#ffffff" bordercolor="#666666" borderopacity="1.0" inkscape:pageopacity="0.0" inkscape:pageshadow="2" inkscape:zoom="0.35" inkscape:cx="13.571429" inkscape:cy="492.85714" inkscape:document-units="px" inkscape:current-layer="layer1" showgrid="false" inkscape:window-width="1920" inkscape:window-height="1000" inkscape:window-x="1280" inkscape:window-y="24" inkscape:window-maximized="1" />
  <metadata id="metadata11757">
    <rdf:RDF>
      <cc:Work rdf:about="">
        <dc:format>image/svg+xml</dc:format>
        <dc:type rdf:resource="http://purl.org/dc/dcmitype/StillImage" />
        <dc:title></dc:title>
      </cc:Work>
    </rdf:RDF>
  </metadata>
  <g inkscape:label="Layer 1" inkscape:groupmode="layer" id="layer1" transform="translate(0,-932.36218)">
    <g id="g12108" transform="translate(0.61867516,2.8571609)">
      <path transform="translate(129.31879,953.68559)" d="M 94.285715,60.219326 C 94.285715,70.870532 85.651206,79.505041 75,79.505041 64.348794,79.505041 55.714285,70.870532 55.714285,60.219326 55.714285,49.56812 64.348794,40.933611 75,40.933611 85.651206,40.933611 94.285715,49.56812 94.285715,60.219326 z" sodipodi:ry="19.285715" sodipodi:rx="19.285715" sodipodi:cy="60.219326" sodipodi:cx="75" id="path9159-0-7" style="opacity:0.95999995;fill:#325556;fill-opacity:0.72413791;stroke:#000000" sodipodi:type="arc" />
      <text id="text9161-7-62" y="1022.653" x="196.60977" style="font-size:40px;font-style:normal;font-weight:normal;fill:#ffffff;fill-opacity:1;stroke:none;font-family:sans;-inkscape-font-specification:sans" xml:space="preserve"><tspan style="font-size:24px;fill:#ffffff" y="1022.653" x="196.60977" id="tspan9163-8-4" sodipodi:role="line">D</tspan></text>
      <path sodipodi:nodetypes="cc" id="path9317-30" d="M 203.78547,991.47589 C 256.9728,939.90669 450.4899,921.05809 535.85736,992.88639" style="fill:none;stroke:#000000;stroke-width:2.5;stroke-linecap:butt;stroke-linejoin:miter;stroke-miterlimit:4;stroke-opacity:1;stroke-dasharray:none;marker-end:none" />
      <path transform="translate(264.67591,953.68559)" d="M 94.285715,60.219326 C 94.285715,70.870532 85.651206,79.505041 75,79.505041 64.348794,79.505041 55.714285,70.870532 55.714285,60.219326 55.714285,49.56812 64.348794,40.933611 75,40.933611 85.651206,40.933611 94.285715,49.56812 94.285715,60.219326 z" sodipodi:ry="19.285715" sodipodi:rx="19.285715" sodipodi:cy="60.219326" sodipodi:cx="75" id="path9159-0-0-9" style="opacity:0.95999995;fill:#325556;fill-opacity:0.72413791;stroke:#000000" sodipodi:type="arc" />
      <text id="text9161-7-6-6" y="1022.653" x="331.96695" style="font-size:40px;font-style:normal;font-weight:normal;fill:#ffffff;fill-opacity:1;stroke:none;font-family:sans;-inkscape-font-specification:sans" xml:space="preserve"><tspan style="font-size:24px;fill:#ffffff" y="1022.653" x="331.96695" id="tspan9163-8-84-5" sodipodi:role="line">D</tspan></text>
      <path sodipodi:nodetypes="cc" id="path9317-99-0" d="M 341.93787,992.29009 C 371.46162,946.65369 490.74446,948.81049 536.27636,992.94829" style="fill:none;stroke:#000000;stroke-width:2.5;stroke-linecap:butt;stroke-linejoin:miter;stroke-miterlimit:4;stroke-opacity:1;stroke-dasharray:none;marker-end:none" />
      <g id="g11097-8-9" transform="translate(397.32143,839.84529)">
        <path sodipodi:type="arc" style="opacity:0.95999995;fill:#325556;fill-opacity:0.72413791;stroke:#000000" id="path9159-0-5-1" sodipodi:cx="75" sodipodi:cy="60.219326" sodipodi:rx="19.285715" sodipodi:ry="19.285715" d="M 94.285715,60.219326 C 94.285715,70.870532 85.651206,79.505041 75,79.505041 64.348794,79.505041 55.714285,70.870532 55.714285,60.219326 55.714285,49.56812 64.348794,40.933611 75,40.933611 85.651206,40.933611 94.285715,49.56812 94.285715,60.219326 z" transform="translate(2.7116345,113.84026)" />
        <text xml:space="preserve" style="font-size:40px;font-style:normal;font-weight:normal;fill:#ffffff;fill-opacity:1;stroke:none;font-family:sans;-inkscape-font-specification:sans" x="70.00264" y="182.80763" id="text9161-7-9-7"><tspan sodipodi:role="line" id="tspan9163-8-0-7" x="70.00264" y="182.80763" style="font-size:24px;fill:#ffffff">D</tspan></text>
        <g transform="translate(5.8597935,110.44545)" id="g9209-7-8-0">
          <path transform="translate(57.142857,4.2857127)" d="M 94.285715,60.219326 C 94.285715,70.870532 85.651206,79.505041 75,79.505041 64.348794,79.505041 55.714285,70.870532 55.714285,60.219326 55.714285,49.56812 64.348794,40.933611 75,40.933611 85.651206,40.933611 94.285715,49.56812 94.285715,60.219326 z" sodipodi:ry="19.285715" sodipodi:rx="19.285715" sodipodi:cy="60.219326" sodipodi:cx="75" id="path9159-4-2-0-8" style="opacity:0.95999995;fill:#518dc5;fill-opacity:0.72413791;stroke:#000000" sodipodi:type="arc" />
          <text id="text9161-3-0-2-2" y="73.253082" x="124.43388" style="font-size:40px;font-style:normal;font-weight:normal;fill:#000000;fill-opacity:1;stroke:none;font-family:sans;-inkscape-font-specification:sans" xml:space="preserve"><tspan style="font-size:24px;fill:#000000" y="73.253082" x="124.43388" id="tspan9163-0-7-72-7" sodipodi:role="line">A</tspan></text>
        </g>
        <path style="fill:none;stroke:#000000;stroke-width:2;stroke-linecap:butt;stroke-linejoin:miter;stroke-miterlimit:4;stroke-opacity:1;stroke-dasharray:none;marker-end:none" d="M 75.714286,153.79075 C 86.187612,135.27133 118.76186,127.53469 138.57143,154.50504" id="path9317-3-8" sodipodi:nodetypes="cc" />
      </g>
      <g id="g11097-83-6" transform="translate(532.67856,839.84529)">
        <path sodipodi:type="arc" style="opacity:0.95999995;fill:#325556;fill-opacity:0.72413791;stroke:#000000" id="path9159-0-00-8" sodipodi:cx="75" sodipodi:cy="60.219326" sodipodi:rx="19.285715" sodipodi:ry="19.285715" d="M 94.285715,60.219326 C 94.285715,70.870532 85.651206,79.505041 75,79.505041 64.348794,79.505041 55.714285,70.870532 55.714285,60.219326 55.714285,49.56812 64.348794,40.933611 75,40.933611 85.651206,40.933611 94.285715,49.56812 94.285715,60.219326 z" transform="translate(2.7116345,113.84026)" />
        <text xml:space="preserve" style="font-size:40px;font-style:normal;font-weight:normal;fill:#ffffff;fill-opacity:1;stroke:none;font-family:sans;-inkscape-font-specification:sans" x="70.00264" y="182.80763" id="text9161-7-5-5"><tspan sodipodi:role="line" id="tspan9163-8-09-2" x="70.00264" y="182.80763" style="font-size:24px;fill:#ffffff">D</tspan></text>
        <g transform="translate(5.8597935,110.44545)" id="g9209-7-68-3">
          <path transform="translate(57.142857,4.2857127)" d="M 94.285715,60.219326 C 94.285715,70.870532 85.651206,79.505041 75,79.505041 64.348794,79.505041 55.714285,70.870532 55.714285,60.219326 55.714285,49.56812 64.348794,40.933611 75,40.933611 85.651206,40.933611 94.285715,49.56812 94.285715,60.219326 z" sodipodi:ry="19.285715" sodipodi:rx="19.285715" sodipodi:cy="60.219326" sodipodi:cx="75" id="path9159-4-2-7-9" style="opacity:0.95999995;fill:#518dc5;fill-opacity:0.72413791;stroke:#000000" sodipodi:type="arc" />
          <text id="text9161-3-0-29-5" y="73.253082" x="124.43388" style="font-size:40px;font-style:normal;font-weight:normal;fill:#000000;fill-opacity:1;stroke:none;font-family:sans;-inkscape-font-specification:sans" xml:space="preserve"><tspan style="font-size:24px;fill:#000000" y="73.253082" x="124.43388" id="tspan9163-0-7-2-1" sodipodi:role="line">A</tspan></text>
        </g>
        <path style="fill:none;stroke:#000000;stroke-width:2;stroke-linecap:butt;stroke-linejoin:miter;stroke-miterlimit:4;stroke-opacity:1;stroke-dasharray:none;marker-end:none" d="M 75.714286,153.79075 C 86.187612,135.27133 118.76186,127.53469 138.57143,154.50504" id="path9317-98-9" sodipodi:nodetypes="cc" />
      </g>
      <g id="g11097-83-4-2" transform="translate(-5.5357129,838.95439)">
        <path sodipodi:type="arc" style="opacity:0.95999995;fill:#325556;fill-opacity:0.72413791;stroke:#000000" id="path9159-0-00-4-1" sodipodi:cx="75" sodipodi:cy="60.219326" sodipodi:rx="19.285715" sodipodi:ry="19.285715" d="M 94.285715,60.219326 C 94.285715,70.870532 85.651206,79.505041 75,79.505041 64.348794,79.505041 55.714285,70.870532 55.714285,60.219326 55.714285,49.56812 64.348794,40.933611 75,40.933611 85.651206,40.933611 94.285715,49.56812 94.285715,60.219326 z" transform="translate(2.7116345,113.84026)" />
        <text xml:space="preserve" style="font-size:40px;font-style:normal;font-weight:normal;fill:#ffffff;fill-opacity:1;stroke:none;font-family:sans;-inkscape-font-specification:sans" x="70.00264" y="182.80763" id="text9161-7-5-1-4"><tspan sodipodi:role="line" id="tspan9163-8-09-8-5" x="70.00264" y="182.80763" style="font-size:24px;fill:#ffffff">D</tspan></text>
        <g transform="translate(5.8597935,110.44545)" id="g9209-7-68-1-0">
          <path transform="translate(57.142857,4.2857127)" d="M 94.285715,60.219326 C 94.285715,70.870532 85.651206,79.505041 75,79.505041 64.348794,79.505041 55.714285,70.870532 55.714285,60.219326 55.714285,49.56812 64.348794,40.933611 75,40.933611 85.651206,40.933611 94.285715,49.56812 94.285715,60.219326 z" sodipodi:ry="19.285715" sodipodi:rx="19.285715" sodipodi:cy="60.219326" sodipodi:cx="75" id="path9159-4-2-7-35-3" style="opacity:0.95999995;fill:#518dc5;fill-opacity:0.72413791;stroke:#000000" sodipodi:type="arc" />
          <text id="text9161-3-0-29-0-1" y="73.253082" x="124.43388" style="font-size:40px;font-style:normal;font-weight:normal;fill:#000000;fill-opacity:1;stroke:none;font-family:sans;-inkscape-font-specification:sans" xml:space="preserve"><tspan style="font-size:24px;fill:#000000" y="73.253082" x="124.43388" id="tspan9163-0-7-2-53-8" sodipodi:role="line">A</tspan></text>
        </g>
        <path style="fill:none;stroke:#000000;stroke-width:2;stroke-linecap:butt;stroke-linejoin:miter;stroke-miterlimit:4;stroke-opacity:1;stroke-dasharray:none;marker-end:none" d="M 75.714286,153.79075 C 86.187612,135.27133 118.76186,127.53469 138.57143,154.50504" id="path9317-98-6-1" sodipodi:nodetypes="cc" />
      </g>
    </g>
  </g>
</svg>
